<svg width="532" height="767" viewBox="0 0 532 767" fill="none" xmlns="http://www.w3.org/2000/svg">
<rect x="221.042" y="286.055" width="96.0184" height="95.0182" fill="#5E5E5E" fill-opacity="0.02"/>
<rect x="220.894" y="94.8322" width="95.8517" height="96.8714" fill="#5E5E5E" fill-opacity="0.02"/>
<rect x="315.06" y="667.942" width="95.8517" height="96.8714" fill="#2B5B82" fill-opacity="0.08"/>
<rect x="155.03" y="670.129" width="95.8517" height="96.8714" fill="black" fill-opacity="0.03"/>
<rect x="410.079" y="573.071" width="96.3615" height="96.3615" fill="#E2E2E2" fill-opacity="0.16"/>
<rect x="220.894" y="478.239" width="95.7337" height="94.949" fill="#8EA7BC" fill-opacity="0.05"/>
<rect x="29.0056" y="96.0184" width="95.7337" height="94.949" fill="#8EA7BC" fill-opacity="0.08"/>
<rect x="125.044" width="95.7337" height="94.949" fill="#332F2F" fill-opacity="0.025"/>
<rect x="124.024" y="286.535" width="96.8714" height="94.832" fill="#332F2F" fill-opacity="0.025"/>
<rect x="435.084" y="189.036" width="96.3449" height="97.4036" fill="#E2E2E2" fill-opacity="0.16"/>
<rect x="220.894" y="381.367" width="95.8517" height="96.8714" fill="#332F2F" fill-opacity="0.015"/>
<rect x="410.391" y="381.367" width="96.8714" height="96.8714" fill="black" fill-opacity="0.03"/>
<rect y="478.092" width="94.832" height="94.832" fill="black" fill-opacity="0.03"/>
<path d="M315.06 286.535H409.892V381.367H315.06V286.535Z" fill="#D9D9D9" fill-opacity="0.05"/>
<path d="M315.06 573.11H409.892V667.942H315.06V573.11Z" fill="black" fill-opacity="0.01"/>
</svg>
